<svg width="1200" height="760" viewBox="0 0 1200 760" fill="none" xmlns="http://www.w3.org/2000/svg">
  <rect width="1200" height="760" rx="36" fill="#050A14"/>
  <rect x="24" y="24" width="1152" height="712" rx="28" fill="#0B1220"/>
  <rect x="88" y="104" width="520" height="44" rx="10" fill="#1A2438"/>
  <rect x="88" y="170" width="430" height="16" rx="8" fill="#334155"/>
  <rect x="88" y="198" width="380" height="16" rx="8" fill="#334155"/>
  <rect x="88" y="250" width="180" height="48" rx="14" fill="#0EA5E9"/>
  <rect x="282" y="250" width="180" height="48" rx="14" fill="#1E293B"/>
  <rect x="88" y="340" width="520" height="292" rx="18" fill="#111A2B"/>
  <rect x="118" y="372" width="220" height="16" rx="8" fill="#38BDF8"/>
  <rect x="118" y="402" width="160" height="14" rx="7" fill="#475569"/>
  <rect x="118" y="448" width="460" height="14" rx="7" fill="#334155"/>
  <rect x="118" y="474" width="420" height="14" rx="7" fill="#334155"/>
  <rect x="118" y="500" width="390" height="14" rx="7" fill="#334155"/>
  <rect x="658" y="104" width="450" height="528" rx="22" fill="#0F172A"/>
  <rect x="688" y="138" width="170" height="16" rx="8" fill="#22D3EE"/>
  <rect x="688" y="170" width="240" height="12" rx="6" fill="#475569"/>
  <rect x="688" y="210" width="390" height="120" rx="14" fill="#111A2B"/>
  <rect x="708" y="232" width="190" height="12" rx="6" fill="#38BDF8"/>
  <rect x="708" y="256" width="160" height="10" rx="5" fill="#64748B"/>
  <rect x="708" y="286" width="350" height="8" rx="4" fill="#334155"/>
  <rect x="688" y="352" width="390" height="120" rx="14" fill="#111A2B"/>
  <rect x="708" y="374" width="180" height="12" rx="6" fill="#34D399"/>
  <rect x="708" y="398" width="220" height="10" rx="5" fill="#64748B"/>
  <rect x="708" y="428" width="350" height="8" rx="4" fill="#334155"/>
  <rect x="688" y="494" width="390" height="108" rx="14" fill="#111A2B"/>
  <rect x="708" y="516" width="200" height="12" rx="6" fill="#F59E0B"/>
  <rect x="708" y="540" width="190" height="10" rx="5" fill="#64748B"/>
  <circle cx="1090" cy="80" r="140" fill="#0EA5E9" fill-opacity="0.13"/>
  <circle cx="1080" cy="700" r="170" fill="#22D3EE" fill-opacity="0.08"/>
</svg>
